<svg xmlns="http://www.w3.org/2000/svg" version="1.1" xmlns:xlink="http://www.w3.org/1999/xlink" xmlns:svgjs="http://svgjs.dev/svgjs" width="1500" height="1500" viewBox="0 0 1500 1500"><rect width="1500" height="1500" fill="#ffffff"></rect><g transform="matrix(0.6666666666666666,0,0,0.6666666666666666,247.47817606414912,66.80322580645156)"><svg viewBox="0 0 182 248" data-background-color="#ffffff" preserveAspectRatio="xMidYMid meet" height="2043" width="1500" xmlns="http://www.w3.org/2000/svg" xmlns:xlink="http://www.w3.org/1999/xlink"><g id="tight-bounds" transform="matrix(1,0,0,1,0.4589719563248593,0.4000000000000057)"><svg viewBox="0 0 181.08205608735028 247.2" height="247.2" width="181.08205608735028"><g><svg viewBox="0 0 356.16148300720903 486.2056489844133" height="247.2" width="181.08205608735028"><g transform="matrix(1,0,0,1,0,239.00564898441328)"><svg viewBox="0 0 356.16148300720903 247.2" height="247.2" width="356.16148300720903"><g id="textblocktransform"><svg viewBox="0 0 356.16148300720903 247.2" height="247.2" width="356.16148300720903" id="textblock"><g><svg viewBox="0 0 356.16148300720903 247.2" height="247.2" width="356.16148300720903"><g transform="matrix(1,0,0,1,0,0)"><svg width="356.16148300720903" viewBox="1.7 -37.7 69.95 48.550000000000004" height="247.2" data-palette-color="#000000"><path d="M15.8-37.7L21.95-37.05 21.95 0 16.5 0 16.2-3.05Q13.85 0.75 10.15 0.75L10.15 0.75Q6.05 0.75 3.88-2.93 1.7-6.6 1.7-13.2L1.7-13.2Q1.7-17.4 2.83-20.58 3.95-23.75 5.95-25.45 7.95-27.15 10.55-27.15L10.55-27.15Q13.75-27.15 15.8-24.5L15.8-24.5 15.8-37.7ZM11.9-3.9Q13.05-3.9 13.98-4.7 14.9-5.5 15.8-7L15.8-7 15.8-19.85Q14.2-22.55 12.15-22.55L12.15-22.55Q8.1-22.55 8.1-13.25L8.1-13.25Q8.1-8.2 9.1-6.05 10.1-3.9 11.9-3.9L11.9-3.9ZM37.05-27.15Q42.05-27.15 44.82-23.65 47.6-20.15 47.6-13.25L47.6-13.25Q47.6-6.65 44.8-2.95 42 0.75 37.05 0.75L37.05 0.75Q32.1 0.75 29.3-2.88 26.5-6.5 26.5-13.25L26.5-13.25Q26.5-19.95 29.3-23.55 32.1-27.15 37.05-27.15L37.05-27.15ZM37.05-22.5Q34.9-22.5 33.9-20.38 32.9-18.25 32.9-13.25L32.9-13.25Q32.9-8.2 33.9-6.08 34.9-3.95 37.05-3.95L37.05-3.95Q39.2-3.95 40.2-6.08 41.2-8.2 41.2-13.25L41.2-13.25Q41.2-18.3 40.2-20.4 39.2-22.5 37.05-22.5L37.05-22.5ZM70.09-29.85L71.65-25.1Q70.59-24.6 69.12-24.4 67.65-24.2 65.45-24.2L65.45-24.2Q67.55-23.2 68.57-21.53 69.59-19.85 69.59-17.4L69.59-17.4Q69.59-13.4 67.15-10.95 64.7-8.5 60.5-8.5L60.5-8.5Q59.25-8.5 57.95-8.9L57.95-8.9Q57.05-8.15 57.05-6.85L57.05-6.85Q57.05-5.85 57.59-5.35 58.15-4.85 59.65-4.85L59.65-4.85 62.45-4.85Q66.45-4.85 68.8-2.78 71.15-0.7 71.15 2.5L71.15 2.5Q71.15 6.3 68.22 8.58 65.3 10.85 59.9 10.85L59.9 10.85Q54.2 10.85 51.92 8.75 49.65 6.65 49.65 2.6L49.65 2.6 55.09 2.6Q55.09 4.75 56.09 5.65 57.09 6.55 59.95 6.55L59.95 6.55Q62.7 6.55 63.84 5.6 65 4.65 65 2.9L65 2.9Q65 1.2 64.05 0.4 63.09-0.4 61.09-0.4L61.09-0.4 59.2-0.4Q55.4-0.4 53.65-1.75 51.9-3.1 51.9-5.45L51.9-5.45Q51.9-6.8 52.62-8.03 53.34-9.25 54.59-10.2L54.59-10.2Q52.55-11.5 51.59-13.3 50.65-15.1 50.65-17.7L50.65-17.7Q50.65-22.05 53.25-24.58 55.84-27.1 60.25-27.1L60.25-27.1Q63.5-27.1 65.62-27.8 67.75-28.5 70.09-29.85L70.09-29.85ZM60.25-23Q58.5-23 57.59-21.75 56.7-20.5 56.7-17.8L56.7-17.8Q56.7-15.25 57.59-13.88 58.5-12.5 60.2-12.5L60.2-12.5Q61.95-12.5 62.8-13.73 63.65-14.95 63.65-17.85L63.65-17.85Q63.65-20.55 62.82-21.78 62-23 60.25-23L60.25-23Z" opacity="1" transform="matrix(1,0,0,1,0,0)" fill="#000000" class="wordmark-text-0" data-fill-palette-color="primary" id="text-0"></path></svg></g></svg></g></svg></g></svg></g><g transform="matrix(1,0,0,1,68.02684325437693,0)"><svg viewBox="0 0 220.10779649845517 180.6476617844133" height="180.6476617844133" width="220.10779649845517"><g><svg xmlns="http://www.w3.org/2000/svg" xmlns:xlink="http://www.w3.org/1999/xlink" version="1.1" x="0" y="0" viewBox="2 10.00032845032078 96.068484124372 78.84567154967922" enable-background="new 0 0 100 100" xml:space="preserve" height="180.6476617844133" width="220.10779649845517" class="icon-icon-0" data-fill-palette-color="accent" id="icon-0"><g fill="#000000" data-fill-palette-color="accent"><g fill="#000000" data-fill-palette-color="accent"><path d="M33.282 88.16C26.894 88.16 20.76 85.264 17.647 80.785 10.81 70.938 10.647 70.568 6.477 61.09 5.524 58.925 4.362 56.28 2.861 52.933L2.745 52.678 2.841 52.415C2.967 52.064 15.809 17.436 48.242 11.776 48.317 11.75 52.049 10.648 57.2 10.648 63.724 10.648 72.826 12.455 79.158 21.045 79.952 21.786 87.474 29.236 84.127 42.77L84.017 43.211 83.568 43.286C82.94 43.389 82.319 43.442 81.721 43.443 73.684 43.443 71.201 34.089 71.177 33.993 68.008 20.497 61.394 16.854 57.376 15.921 62.091 19.028 65.774 25.396 66.947 30.954 68.01 35.987 67.066 40.118 64.358 42.285 57.917 47.447 54.951 61.37 54.633 62.94L54.566 63.282 54.249 63.429C51.551 64.693 48.628 67.257 45.561 71.051L45.127 71.587 44.078 70.689 43.677 70.006C43.968 70.649 44.226 71.275 44.45 71.889 45.852 75.685 46.025 78.985 44.962 81.694 43.374 85.743 39.009 88.16 33.282 88.16M4.24 52.627A1136 1136 0 0 1 7.745 60.532C11.862 69.894 12.024 70.26 18.784 79.995 21.6 84.051 27.428 86.776 33.282 86.776 38.417 86.776 42.301 84.687 43.674 81.19 44.608 78.808 44.433 75.838 43.151 72.368 42.422 70.372 41.309 68.196 39.846 65.901 24.101 41.22 29.941 29.6 30.198 29.118L32.421 24.931 31.488 29.579C31.462 29.708 29.122 42.601 45.01 69.542 47.907 66.071 50.707 63.647 53.347 62.328 54.039 59.037 57.06 46.361 63.493 41.206 65.779 39.372 66.546 35.742 65.595 31.241 64.233 24.792 59.359 17.203 53.559 15.667L50.493 14.854 53.618 14.315C53.667 14.307 54.11 14.234 54.853 14.234 57.928 14.234 68.291 15.637 72.523 33.666 72.608 33.994 74.764 42.059 81.721 42.059 82.103 42.058 82.494 42.035 82.893 41.987 85.865 29.099 78.257 22.096 78.179 22.027L78.082 21.921C72.092 13.75 63.42 12.034 57.201 12.034 52.264 12.034 48.596 13.113 48.558 13.125 18.316 18.403 5.472 49.469 4.24 52.627M30.392 37.158C30.611 42.828 32.669 51.815 40.473 64.301 33.82 51.861 31.286 42.899 30.392 37.158M55.127 40.558C53.145 40.558 52.334 39.64 52.249 39.537L52.159 39.395C51.015 37.005 51.336 34.341 51.35 34.228L51.376 34.023 51.511 33.865C52.742 32.431 54.541 31.673 56.707 31.673 58.24 31.673 59.419 32.055 59.467 32.071L59.73 32.155 59.859 32.395C61.28 34.99 59.54 39.087 59.464 39.26L59.354 39.517 59.096 39.625C57.619 40.244 56.283 40.558 55.127 40.558M53.36 38.694C53.502 38.811 54.022 39.173 55.126 39.173H55.127C56.031 39.173 57.098 38.932 58.297 38.456 58.732 37.33 59.411 34.872 58.768 33.311A8.7 8.7 0 0 0 56.708 33.057C55.018 33.057 53.672 33.578 52.706 34.607 52.664 35.212 52.611 37.052 53.36 38.694M79.354 38.937C78.658 38.937 77.909 38.811 77.129 38.56L76.834 38.465 76.708 38.182C76.668 38.094 75.725 35.948 75.851 33.535L75.862 33.353 75.959 33.201C76.029 33.087 77.743 30.43 80.574 30.43 81.135 30.43 81.704 30.537 82.263 30.749L82.531 30.85 82.649 31.108C82.738 31.3 84.777 35.832 82.345 37.865 82.326 37.899 81.38 38.937 79.354 38.937M77.859 37.333C78.388 37.479 78.89 37.553 79.353 37.553 80.743 37.553 81.356 36.9 81.381 36.873 82.797 35.681 81.844 32.836 81.498 31.951A3.3 3.3 0 0 0 80.572 31.813C78.828 31.813 77.577 33.323 77.225 33.798 77.188 35.329 77.643 36.746 77.859 37.333" fill="#000000" data-fill-palette-color="accent"></path></g><path d="M33.371 88.846C27.616 88.846 20.701 86.396 17.078 81.179 10.203 71.28 10.04 70.906 5.844 61.368A1057 1057 0 0 0 2.229 53.217L2 52.705 2.19 52.179C2.317 51.827 15.284 16.874 48.052 11.108 49.536 10.698 68.71 5.78 79.677 20.587 80.724 21.585 87.873 28.982 84.991 42.109L93.26 49.339C94.035 49.696 96.193 50.905 97.335 53.748 98.8 57.387 98.068 62.175 95.161 67.983 94.424 69.358 92.214 71.578 89.015 70.407 87.715 69.944 86.369 68.922 85.01 67.367 82.728 68.759 77.209 71.664 71.378 71.223 66.515 70.844 62.615 68.302 59.778 63.667 59.285 63.391 57.539 62.661 54.541 64.059 51.939 65.277 49.1 67.775 46.099 71.488L45.918 71.717 45.369 72.418C46.577 76.061 46.658 79.265 45.606 81.948 44.143 85.677 40.473 88.145 35.54 88.722 34.846 88.805 34.117 88.846 33.371 88.846M4.993 52.61C6.382 55.715 7.475 58.2 8.379 60.253 12.55 69.738 12.631 69.921 19.354 79.601 22.823 84.597 29.97 86.593 35.22 85.974 37.503 85.706 41.554 84.696 43.03 80.938 43.901 78.717 43.723 75.915 42.502 72.607 41.788 70.658 40.698 68.528 39.262 66.276 23.303 41.257 29.324 29.292 29.587 28.794L34.127 20.247 32.166 29.726C32.142 29.841 29.952 42.304 45.116 68.354 47.975 65.062 50.743 62.781 53.368 61.553 58.581 59.119 61.57 61.528 61.695 61.631L61.879 61.784 62 61.989C64.363 65.974 67.589 68.152 71.59 68.465 78.039 68.939 84.43 64.449 84.493 64.405L85.58 63.632 86.394 64.688C88.015 66.792 89.225 67.542 89.956 67.802 91.644 68.419 92.547 66.99 92.712 66.698 95.167 61.791 95.896 57.674 94.795 54.847 93.903 52.561 92.113 51.855 92.038 51.827L91.806 51.738 91.605 51.57 81.908 43.09 82.111 42.271C85.254 29.574 78.022 22.823 77.715 22.541L77.526 22.332C67.353 8.455 49.514 13.564 48.758 13.788L48.601 13.825C19.499 18.901 6.696 48.358 4.993 52.61" fill="#000000" data-fill-palette-color="accent"></path><path d="M80.975 73.51C78.681 73.51 76.253 72.817 74.034 70.802A1.39 1.39 0 0 1 73.938 68.845 1.386 1.386 0 0 1 75.895 68.752C80.897 73.296 87.707 68.686 88.641 68.013A1.384 1.384 0 0 1 90.522 70.041 3 3 0 0 1 90.331 70.209C89.673 70.688 85.602 73.51 80.975 73.51" fill="#000000" data-fill-palette-color="accent"></path><path d="M88.569 62.067A3.4 3.4 0 0 1 87.623 61.926 2.5 2.5 0 0 1 86.799 62.06C86.291 62.06 85.511 61.913 84.679 61.199 83.76 60.414 83.917 59.189 84.033 58.298 84.045 58.224 84.054 58.135 84.064 58.046 83.956 58.081 83.829 58.126 83.681 58.184 81.348 59.095 79.531 58.006 79.408 55.949 79.267 53.621 81.199 50.762 83.995 50.427 85.299 50.271 86.693 50.117 88.149 50.117 94.294 50.117 95.665 53.091 95.734 55.584 95.788 57.446 95.545 58.515 94.922 59.156A1.83 1.83 0 0 1 93.603 59.723C92.418 59.723 91.517 58.607 91.015 57.665 90.92 57.806 90.855 57.972 90.892 58.135 90.996 58.595 91.265 60.153 90.416 61.213 89.975 61.764 89.318 62.067 88.569 62.067M86.782 56.771L88.316 56.891A3.7 3.7 0 0 1 88.883 55.901C89.55 55.06 90.516 54.538 91.4 54.538 92.038 54.538 92.589 54.809 92.941 55.265 92.838 54.333 92.239 52.885 88.148 52.885 86.845 52.885 85.544 53.028 84.325 53.173 83.659 53.254 83.002 53.746 82.563 54.49 82.258 55.013 82.163 55.49 82.166 55.747 82.282 55.731 82.444 55.693 82.67 55.605 84.727 54.797 85.852 55.335 86.314 55.863 86.559 56.14 86.704 56.45 86.782 56.771" fill="#000000" data-fill-palette-color="accent"></path><path d="M53.947 64.257A1.385 1.385 0 0 1 52.561 62.873C52.561 62.787 52.578 62.631 52.594 62.546 53.14 59.845 56.192 46.169 63.059 40.667 65.134 39.004 65.811 35.621 64.916 31.384 63.597 25.141 58.921 17.804 53.381 16.337L47.243 14.713 53.5 13.635C53.643 13.609 68.004 11.401 73.193 33.507 73.282 33.847 75.618 42.497 83.228 41.237A1.385 1.385 0 0 1 83.679 43.971C75.578 45.305 71.519 38.142 70.504 34.167 68.344 24.967 64.599 20.475 61.22 18.302 64.426 21.79 66.727 26.564 67.624 30.814 68.742 36.109 67.708 40.489 64.788 42.828 58.606 47.782 55.686 61.234 55.321 63.025A1.38 1.38 0 0 1 53.947 64.257" fill="#000000" data-fill-palette-color="accent"></path><path d="M69.655 82.828H44.318A1.396 1.396 0 0 1 42.92 81.443C42.92 80.678 43.528 80.058 44.293 80.058H67.63C66.539 76.552 66.304 71.448 70.777 68.888A1.386 1.386 0 0 1 72.667 69.401 1.387 1.387 0 0 1 72.152 71.291C67.612 73.891 70.765 80.557 70.901 80.839L71.861 82.826z" fill="#000000" data-fill-palette-color="accent"></path><path d="M55.127 41.251C52.875 41.251 51.889 40.189 51.714 39.975L51.534 39.695C50.305 37.125 50.646 34.264 50.663 34.142L50.716 33.73 50.987 33.415C52.353 31.822 54.333 30.981 56.708 30.981 58.321 30.981 59.549 31.369 59.686 31.413L60.206 31.584 60.47 32.065C62.023 34.902 60.303 39.072 60.103 39.538L59.88 40.051 59.364 40.265C57.8 40.919 56.375 41.251 55.127 41.251M53.92 38.249C54.066 38.321 54.442 38.48 55.126 38.48H55.127C55.875 38.48 56.756 38.292 57.754 37.922 58.106 36.912 58.554 35.131 58.236 33.901A8 8 0 0 0 56.708 33.748C55.316 33.748 54.201 34.14 53.382 34.909 53.357 35.586 53.387 36.973 53.92 38.249" fill="#000000" data-fill-palette-color="accent"></path><path d="M79.354 39.628C78.584 39.628 77.764 39.49 76.916 39.218L76.328 39.029 76.076 38.464C76.032 38.369 75.024 36.076 75.159 33.499L75.179 33.137 75.373 32.829C75.452 32.705 77.366 29.738 80.573 29.738 81.217 29.738 81.868 29.86 82.507 30.1L83.039 30.301 83.277 30.819C83.519 31.345 85.544 35.997 82.85 38.342 82.507 38.684 81.38 39.628 79.354 39.628M78.39 36.751C78.731 36.824 79.053 36.86 79.354 36.86 80.404 36.86 80.864 36.413 80.882 36.393L81.014 36.266C81.764 35.64 81.429 33.78 80.991 32.54 79.541 32.298 78.367 33.477 77.918 34.036 77.925 35.126 78.191 36.143 78.39 36.751" fill="#000000" data-fill-palette-color="accent"></path><path d="M57.424 38.114S56.829 37.884 56.646 36.968C56.461 36.051 56.391 36.026 56.326 35.364 56.259 34.701 56.275 33.511 57.081 33.269 57.885 33.026 59.386 34.683 59.386 36.004 59.386 36.488 59.256 36.932 59.014 37.286A1.9 1.9 0 0 1 57.424 38.114" fill="#000000" data-fill-palette-color="accent"></path><path d="M80.701 36.384S80.197 36.19 80.043 35.415C79.887 34.64 79.827 34.619 79.771 34.058 79.714 33.499 79.728 32.494 80.409 32.288 81.088 32.082 82.357 33.484 82.357 34.602 82.357 35.009 82.249 35.382 82.043 35.683A1.6 1.6 0 0 1 80.701 36.384" fill="#000000" data-fill-palette-color="accent"></path></g></svg></g></svg></g><g></g></svg></g><defs></defs></svg><rect width="181.08205608735028" height="247.2" fill="none" stroke="none" visibility="hidden"></rect></g></svg></g></svg>